# xmcd
#
# Track frame offsets:
# 150
# 19591
# 33482
# 47633
# 62642
# 78183
# 92578
# 104662
# 117218
# 128045
# 141461
# 158618
# 172238
#
# Disc length: 2503 seconds
#
#
# Revision: 0
# Processed by: cddbd v1.5.2PL0 Copyright (c) Steve Scherf et al.
# Submitted via: FreeRIP 2.944 
#
DISCID=a909c50d
DTITLE=Josh Brown - Josh Brown
DYEAR=2007
DGENRE=Country
TTITLE0=Only way to go
TTITLE1=I'll let you go
TTITLE2=Hello goodbye
TTITLE3=Lot of things love can do
TTITLE4=The luckiest man alive
TTITLE5=Should I walk by again
TTITLE6=You'll never catch me running
TTITLE7=I need somebody
TTITLE8=Been there (but I didn't do that)
TTITLE9=More than tequila
TTITLE10=Do you love her enough
TTITLE11=She drove me to drinking
TTITLE12=Beautiful in his eyes
EXTD=www.myspace.com/joshbrownmusic
EXTT0=
EXTT1=
EXTT2=
EXTT3=
EXTT4=
EXTT5=
EXTT6=
EXTT7=
EXTT8=
EXTT9=
EXTT10=
EXTT11=
EXTT12=
PLAYORDER=
